<svg id="Lag_1" data-name="Lag 1" xmlns="http://www.w3.org/2000/svg" viewBox="0 0 1000 1000"><defs><style>.cls-1{fill:#00a99d;}.cls-2{fill:#333;}</style></defs><title>L-logo</title><path class="cls-1" d="M0,673.38l70,47.51,411,279.11c83.94-3.58,168.17-6,252.42-8L268.94,676.59l.13,3.86L75.26,683.84l-2-60.15Z"/><path class="cls-2" d="M743.34,991.75c85.66-2,171.31-3.46,256.66-5.13L492.87,642.22l1.06,32.34L300.11,678l-5.58-170.43L262.7,485.9l6,183.52Z"/><polygon class="cls-2" points="121.6 576.53 258.98 483.38 262.69 485.9 246.9 3.62 53.09 7.01 72.16 589.27 73.29 623.68 132.21 583.73 121.6 576.53"/><polygon points="137.37 580.23 132.21 583.73 268.94 676.59 268.71 669.42 137.37 580.23"/><polygon class="cls-1" points="471.83 0 278.02 3.39 294.53 507.52 492.87 642.22 471.83 0"/></svg>