<svg id="Lag_1" data-name="Lag 1" xmlns="http://www.w3.org/2000/svg" xmlns:xlink="http://www.w3.org/1999/xlink" viewBox="0 0 1000 1000"><defs><style>.cls-1{fill:#00a99d;}.cls-2{fill:#333;}.cls-3{opacity:0.7;}.cls-4,.cls-5,.cls-6,.cls-7,.cls-8{stroke:#fcfcfc;}.cls-10,.cls-11,.cls-12,.cls-13,.cls-4,.cls-5,.cls-6,.cls-7,.cls-8,.cls-9{stroke-miterlimit:10;stroke-width:4px;}.cls-4{fill:url(#Ikke-navngivet_forløb_78);}.cls-5{fill:url(#Ikke-navngivet_forløb_78-2);}.cls-6{fill:url(#Ikke-navngivet_forløb_78-3);}.cls-7{fill:url(#Ikke-navngivet_forløb_78-4);}.cls-8{fill:url(#Ikke-navngivet_forløb_78-5);}.cls-10,.cls-11,.cls-12,.cls-13,.cls-9{stroke:#fff;}.cls-9{fill:url(#Ikke-navngivet_forløb_78-6);}.cls-10{fill:url(#Ikke-navngivet_forløb_78-7);}.cls-11{fill:url(#Ikke-navngivet_forløb_78-8);}.cls-12{fill:url(#Ikke-navngivet_forløb_78-9);}.cls-13{fill:url(#Ikke-navngivet_forløb_78-10);}</style><linearGradient id="Ikke-navngivet_forløb_78" x1="213.54" y1="509.31" x2="213.62" y2="475.27" gradientTransform="matrix(1, -0.03, 0.04, 1.17, -7.88, 47.57)" gradientUnits="userSpaceOnUse"><stop offset="0" stop-color="#29abe2"/><stop offset="0.62" stop-color="#1892d2"/><stop offset="1" stop-color="#1189cc"/></linearGradient><linearGradient id="Ikke-navngivet_forløb_78-2" x1="156.67" y1="276.57" x2="156.92" y2="180.66" xlink:href="#Ikke-navngivet_forløb_78"/><linearGradient id="Ikke-navngivet_forløb_78-3" x1="156.59" y1="467.07" x2="156.99" y2="312.06" xlink:href="#Ikke-navngivet_forløb_78"/><linearGradient id="Ikke-navngivet_forløb_78-4" x1="156.61" y1="108.2" x2="156.9" y2="-4.07" xlink:href="#Ikke-navngivet_forløb_78"/><linearGradient id="Ikke-navngivet_forløb_78-5" x1="170.22" y1="174.5" x2="170.39" y2="110.68" xlink:href="#Ikke-navngivet_forløb_78"/><linearGradient id="Ikke-navngivet_forløb_78-6" x1="965.26" y1="994.46" x2="965.4" y2="937.76" gradientTransform="matrix(0.01, 0.44, -0.75, 0.01, 848.46, 360.74)" xlink:href="#Ikke-navngivet_forløb_78"/><linearGradient id="Ikke-navngivet_forløb_78-7" x1="873.91" y1="606.74" x2="874.33" y2="446.96" gradientTransform="matrix(0.01, 0.44, -0.75, 0.01, 848.46, 360.74)" xlink:href="#Ikke-navngivet_forløb_78"/><linearGradient id="Ikke-navngivet_forløb_78-8" x1="873.74" y1="924.09" x2="874.41" y2="665.88" gradientTransform="matrix(0.01, 0.44, -0.75, 0.01, 848.46, 360.74)" xlink:href="#Ikke-navngivet_forløb_78"/><linearGradient id="Ikke-navngivet_forløb_78-9" x1="873.86" y1="326.25" x2="874.34" y2="139.23" gradientTransform="matrix(0.01, 0.44, -0.75, 0.01, 848.46, 360.74)" xlink:href="#Ikke-navngivet_forløb_78"/><linearGradient id="Ikke-navngivet_forløb_78-10" x1="895.71" y1="436.71" x2="895.99" y2="330.39" gradientTransform="matrix(0.01, 0.44, -0.75, 0.01, 848.46, 360.74)" xlink:href="#Ikke-navngivet_forløb_78"/></defs><title>L-logo</title><path class="cls-1" d="M0,673.38l70,47.51,411,279.11c83.94-3.58,168.17-6,252.42-8L268.94,676.59l.13,3.86L75.26,683.84l-2-60.15Z"/><path class="cls-2" d="M743.34,991.75c85.66-2,171.31-3.46,256.66-5.13L492.87,642.22l1.06,32.34L300.11,678l-5.58-170.43L262.7,485.9l6,183.52Z"/><polygon class="cls-2" points="121.6 576.53 258.98 483.38 262.69 485.9 246.9 3.62 53.09 7.01 72.16 589.27 73.29 623.68 132.21 583.73 121.6 576.53"/><polygon points="137.37 580.23 132.21 583.73 268.94 676.59 268.71 669.42 137.37 580.23"/><polygon class="cls-1" points="471.83 0 278.02 3.39 294.53 507.52 492.87 642.22 471.83 0"/><g class="cls-3"><polygon class="cls-4" points="205.81 653.28 245.37 651.99 243.53 596.01 205.81 653.28"/><polygon class="cls-5" points="233.78 298.5 79.13 250.91 84.32 408.97 236.13 370.36 233.78 298.5"/><polygon class="cls-6" points="178.13 654.19 242.25 556.85 237.01 397 85.19 435.61 92.45 657 178.13 654.19"/><polygon class="cls-7" points="228.51 138.01 224.92 28.41 72 33.42 78.05 217.97 228.51 138.01"/><polygon class="cls-8" points="105.36 232.06 232.88 271.31 229.43 166.13 105.36 232.06"/></g><g class="cls-3"><polygon class="cls-9" points="91.23 782.08 91.66 810 151.43 809.09 91.23 782.08"/><polygon class="cls-10" points="469.12 804.27 523.64 695.48 354.86 698.04 392.38 805.44 469.12 804.27"/><polygon class="cls-11" points="90.93 762.54 193.24 808.46 363.94 805.87 326.41 698.47 90 702.06 90.93 762.54"/><polygon class="cls-12" points="640.5 801.67 757.54 799.9 755.88 691.96 558.82 694.95 640.5 801.67"/><polygon class="cls-13" points="543.11 714.12 498.16 803.83 610.47 802.13 543.11 714.12"/></g></svg>