<svg id="Lag_1" data-name="Lag 1" xmlns="http://www.w3.org/2000/svg" viewBox="0 0 291.76 329.69"><defs><style>.cls-1{fill:#303841;}.cls-2{fill:#fff;}</style></defs><title>L-logo-new</title><polygon class="cls-1" points="144.39 44.57 140.14 38.18 137.47 45.22 141.72 51.6 144.39 44.57"/><polygon class="cls-1" points="118.99 246.47 123.19 251.67 126.47 245.99 122.27 240.78 118.99 246.47"/><polygon class="cls-1" points="82.14 191.05 79.62 197.68 84.16 203.3 86.67 196.67 82.14 191.05"/><polygon class="cls-1" points="86.67 196.67 122.27 240.78 189.77 123.87 141.72 51.6 86.67 196.67"/><polygon class="cls-1" points="282.62 252.43 291.76 247.26 291.76 174.37 263.38 223.51 282.62 252.43"/><polygon class="cls-1" points="193.63 129.66 197.04 123.75 193.19 117.95 189.77 123.87 193.63 129.66"/><polygon class="cls-1" points="126.47 245.99 178.94 311.01 218.61 288.59 256.12 223.63 193.63 129.66 126.47 245.99"/><polygon class="cls-1" points="84.16 203.3 55.56 278.66 89.38 297.76 118.99 246.47 84.16 203.3"/><polygon class="cls-1" points="94.81 300.83 145.88 329.69 173.54 314.06 123.19 251.67 94.81 300.83"/><polygon class="cls-1" points="0 99.01 0 247.26 50.07 275.56 79.62 197.68 0 99.01"/><polygon class="cls-1" points="153.09 4.07 145.88 0 123.25 12.78 140.14 38.18 153.09 4.07"/><polygon class="cls-1" points="137.47 45.22 117.91 15.8 0 82.42 0 89.27 82.14 191.05 137.47 45.22"/><polygon class="cls-1" points="259.53 217.72 291.76 161.9 291.76 82.42 238.33 52.23 197.04 123.75 259.53 217.72"/><polygon class="cls-1" points="193.19 117.95 232.9 49.17 158.58 7.17 144.39 44.57 193.19 117.95"/><polygon class="cls-1" points="256.12 223.63 259.97 229.43 263.38 223.51 259.53 217.72 256.12 223.63"/><polygon class="cls-1" points="229.3 282.56 277.27 255.45 259.97 229.43 229.3 282.56"/><polygon class="cls-2" points="141.72 51.6 137.47 45.22 82.14 191.05 86.67 196.67 141.72 51.6"/><polyline class="cls-2" points="55.56 278.66 84.16 203.3 79.62 197.68 50.07 275.56"/><polyline class="cls-2" points="153.09 4.07 140.14 38.18 144.39 44.57 158.58 7.17"/><polygon class="cls-2" points="189.77 123.87 122.27 240.78 126.47 245.99 193.63 129.66 189.77 123.87"/><polyline class="cls-2" points="232.9 49.17 193.19 117.95 197.04 123.75 238.33 52.23"/><polyline class="cls-2" points="94.81 300.83 123.19 251.67 118.99 246.47 89.38 297.76"/><polygon class="cls-2" points="86.67 196.67 84.16 203.3 118.99 246.47 122.27 240.78 86.67 196.67"/><polyline class="cls-2" points="178.94 311.01 126.47 245.99 123.19 251.67 173.54 314.06"/><polyline class="cls-2" points="0 99.01 79.62 197.68 82.14 191.05 0 89.27"/><polygon class="cls-2" points="197.04 123.75 193.63 129.66 256.12 223.63 259.53 217.72 197.04 123.75"/><polyline class="cls-2" points="282.62 252.43 263.38 223.51 259.97 229.43 277.27 255.45"/><polygon class="cls-2" points="189.77 123.87 193.19 117.95 144.39 44.57 141.72 51.6 189.77 123.87"/><polyline class="cls-2" points="117.91 15.8 137.47 45.22 140.14 38.18 123.25 12.78"/><polyline class="cls-2" points="229.3 282.56 259.97 229.43 256.12 223.63 218.61 288.59"/></svg>