<svg id="Lag_1" data-name="Lag 1" xmlns="http://www.w3.org/2000/svg" xmlns:xlink="http://www.w3.org/1999/xlink" viewBox="0 0 1000.06 807.79"><defs><style>.cls-1{fill:#303841;}.cls-2{fill:url(#Ikke-navngivet_forløb_5);}.cls-3{fill:#3d4549;}.cls-4{fill:#fff;}.cls-5{fill:#666;}.cls-6{fill:url(#Ikke-navngivet_forløb_37);}.cls-7{fill:gray;}.cls-8{fill:none;}.cls-9{fill:#4d4d4d;}.cls-10{fill:url(#Ikke-navngivet_forløb_38);}</style><linearGradient id="Ikke-navngivet_forløb_5" x1="362.85" y1="457.46" x2="694.67" y2="625.92" gradientTransform="translate(4.14 -68.79) rotate(0.5)" gradientUnits="userSpaceOnUse"><stop offset="0.24" stop-color="#3d4549"/><stop offset="0.44" stop-color="#303841"/></linearGradient><linearGradient id="Ikke-navngivet_forløb_37" x1="723.92" y1="27.36" x2="367.15" y2="721.15" gradientUnits="userSpaceOnUse"><stop offset="0" stop-color="#f7931e"/><stop offset="1" stop-color="#97671e"/></linearGradient><linearGradient id="Ikke-navngivet_forløb_38" x1="761.55" y1="841.89" x2="349.45" y2="733.83" gradientUnits="userSpaceOnUse"><stop offset="0.1" stop-color="#4d4d4d"/><stop offset="0.22" stop-color="#84643e"/><stop offset="0.34" stop-color="#b57830"/><stop offset="0.44" stop-color="#d98726"/><stop offset="0.53" stop-color="#ef9020"/><stop offset="0.58" stop-color="#f7931e"/><stop offset="0.68" stop-color="#e0881e"/><stop offset="0.88" stop-color="#a56e1e"/><stop offset="0.93" stop-color="#97671e"/></linearGradient></defs><title>logo-boks</title><polygon class="cls-1" points="335.6 700.53 337.85 721.92 354.74 708.29 352.49 686.91 335.6 700.53"/><polygon class="cls-1" points="685.26 240.28 681.48 221.86 664.88 231.34 668.66 249.76 685.26 240.28"/><polygon class="cls-1" points="704.81 425.92 720.73 413.09 716.64 393.18 700.73 406.01 704.81 425.92"/><polygon class="cls-2" points="700.73 406.01 668.66 249.76 327.01 444.82 352.49 686.91 700.73 406.01"/><polygon class="cls-3" points="262.31 4.21 230.98 4.49 128.9 183.07 272.51 101.08 262.31 4.21"/><polygon class="cls-3" points="324.97 425.41 307.68 435.28 309.72 454.69 327.01 444.82 324.97 425.41"/><polygon class="cls-3" points="664.88 231.34 617.62 1.03 481.66 2.24 291.84 110.62 324.97 425.41 664.88 231.34"/><polygon class="cls-1" points="716.64 393.18 897.54 247.27 835.16 154.7 685.26 240.28 716.64 393.18"/><polygon class="cls-1" points="636.12 0.85 667.24 0.57 730.92 0 765.22 50.88 825.15 139.84 681.48 221.85 677.78 203.85 661.04 122.25 644.3 40.7 636.12 0.85"/><polygon class="cls-1" points="792.44 762.57 1000.04 399.38 907.67 262.3 720.73 413.09 792.44 762.57"/><polygon class="cls-1" points="255.96 787.97 269.26 807.7 346.8 807 337.85 721.92 255.96 787.97"/><polygon class="cls-1" points="778.8 786.45 769.21 803.23 769.07 803.23 768.79 772.55 753.39 772.69 735.76 803.53 365.11 806.84 361.88 776.19 360.14 759.57 354.74 708.3 419.13 656.36 419.14 656.36 704.81 425.93 770.01 743.61 778.8 786.45"/><polygon class="cls-3" points="274.55 120.49 111.44 213.62 0.14 408.33 98.7 554.6 307.68 435.28 274.55 120.49"/><polygon class="cls-3" points="309.72 454.69 108.72 569.46 245.83 772.93 335.6 700.53 309.72 454.69"/><polygon class="cls-1" points="291.84 110.62 289.8 91.21 272.51 101.08 274.55 120.49 291.84 110.62"/><polygon class="cls-3" points="445.04 2.57 280.62 4.04 289.8 91.21 445.04 2.57"/><polygon class="cls-4" points="352.49 686.91 354.74 708.29 704.81 425.92 700.73 406.01 352.49 686.91"/><polygon class="cls-4" points="897.54 247.27 716.64 393.18 720.73 413.09 907.67 262.3 897.54 247.27"/><polygon class="cls-4" points="255.96 787.97 337.85 721.92 335.6 700.53 245.83 772.93 255.96 787.97"/><polygon class="cls-4" points="327.01 444.82 668.66 249.76 664.88 231.34 324.97 425.41 327.01 444.82"/><polygon class="cls-4" points="108.72 569.46 309.72 454.69 307.68 435.28 98.7 554.6 108.72 569.46"/><polygon class="cls-4" points="825.15 139.84 681.48 221.86 685.26 240.28 835.16 154.7 825.15 139.84"/><polygon class="cls-4" points="700.73 406.01 716.64 393.18 685.26 240.28 668.66 249.76 700.73 406.01"/><polygon class="cls-4" points="617.62 1.03 664.88 231.34 681.48 221.86 636.13 0.86 617.62 1.03"/><polygon class="cls-4" points="792.44 762.57 720.73 413.09 704.81 425.92 778.79 786.45 792.44 762.57"/><polygon class="cls-4" points="307.68 435.28 324.97 425.41 291.84 110.62 274.55 120.49 307.68 435.28"/><polygon class="cls-4" points="262.31 4.21 272.51 101.08 289.8 91.21 280.62 4.04 262.31 4.21"/><polygon class="cls-4" points="327.01 444.82 309.72 454.69 335.6 700.53 352.49 686.91 327.01 444.82"/><polygon class="cls-4" points="365.11 806.84 354.74 708.29 337.85 721.92 346.8 807 365.11 806.84"/><polygon class="cls-4" points="445.04 2.57 289.8 91.21 291.84 110.62 481.66 2.24 445.04 2.57"/><polygon class="cls-5" points="234.72 757.26 667.24 0.57 730.92 0 269.24 807.69 234.72 757.26"/><polygon class="cls-6" points="269.24 807.69 730.92 0 765.22 50.88 332.57 807.79 269.24 807.69"/><polygon class="cls-7" points="18.08 435.17 264.57 3.94 230.99 4.46 0 408.58 18.08 435.17"/><line class="cls-8" x1="332.35" y1="807.13" x2="269.26" y2="807.7"/><line class="cls-8" x1="234.97" y1="756.82" x2="269.26" y2="807.7"/><polygon class="cls-9" points="1000.06 399.36 792.44 762.58 778.8 786.45 769.07 803.23 769.07 803.23 735.76 803.53 735.76 803.53 769.07 803.23 768.79 772.55 753.39 772.69 770.01 743.61 783.65 719.74 982.04 372.67 982.18 372.42 1000.06 399.36"/><polygon class="cls-9" points="769.07 803.22 735.11 803.53 753.09 771.49 768.78 771.34 769.07 803.22"/><polygon class="cls-10" points="735.68 803.53 735.68 803.53 331.11 807.79 331.21 807.57 331.49 807.13 342.81 787.38 345.39 782.9 354.42 767.15 359.97 767.09 759.21 762.51 735.68 803.53 735.68 803.53"/></svg>