<svg id="Lag_1" data-name="Lag 1" xmlns="http://www.w3.org/2000/svg" viewBox="0 0 366.32 422.41"><defs><style>.cls-1{fill:#303841;}.cls-2{fill:#fff;}.cls-3{fill:none;stroke:#fff;stroke-miterlimit:10;}</style></defs><title>logo-boks-v2</title><polygon class="cls-1" points="365.82 105.46 365.82 316.37 259.81 377.58 246.54 385.24 183.16 421.83 0.5 316.37 0.5 105.46 3.72 103.6 86.95 55.55 183.16 0 208.39 14.57 242.64 34.34 298.39 66.53 312.63 74.75 365.82 105.46"/><text x="-305.59" y="-263.39"/><path class="cls-2" d="M445.94,402.53q-1.51-16.89-4.49-33.62a118.14,118.14,0,0,1,26.64.92,760.18,760.18,0,0,1-11.33,167.58A25.4,25.4,0,0,0,468,545a72.29,72.29,0,0,0,16,3.73,169.36,169.36,0,0,0,18.83,1.31c6.44.13,12.88,0,19.31-.23,5.8-.22,11.59-.56,17.39-.92,4.35-.27,8.71-.58,13.07-.74,1.09,0,2.17-.07,3.26-.06q-4,10.86-8,21.73a350.11,350.11,0,0,0-126.08,10.21A401.46,401.46,0,0,0,445.94,402.53Z" transform="translate(-305.59 -263.39)"/><polygon class="cls-3" points="119.25 163.58 53.22 129.3 15.48 109.71 3.72 103.6 86.95 55.55 91.88 72.03 101.73 104.98 119.25 163.58"/><polygon class="cls-3" points="365.82 168.66 365.82 254.76 272.65 229.22 249.94 223 194.26 207.74 160.89 198.59 155.72 197.17 141.53 193.28 1.92 155.02 0.5 154.63 0.5 117.09 15.48 109.71 91.88 72.03 208.39 14.57 242.64 34.34 298.39 66.53 312.63 74.75 365.82 168.66"/><polygon class="cls-3" points="298.39 66.53 249.94 223 245.45 237.51 230.52 285.74 227.78 294.59 227.37 295.91 224.51 305.12 195.15 399.96 52.87 271.61 0.5 224.38 0.5 155.73 1.92 155.02 53.22 129.3 101.73 104.98 242.64 34.34 298.39 66.53"/><polygon class="cls-3" points="259.81 377.58 246.54 385.24 183.16 421.83 0.5 316.37 0.5 309.51 52.87 271.61 140.57 208.14 155.72 197.17 161.3 193.14 182.66 177.68 194.26 207.74 224.5 286.08 226.22 290.54 227.78 294.59 232.02 305.59 259.81 377.58"/><polygon class="cls-3" points="365.82 200.85 365.82 316.37 259.81 377.58 246.54 385.24 229.41 305.41 227.37 295.91 226.22 290.54 225.25 286.05 216.71 246.26 245.45 237.51 272.65 229.22 365.82 200.85"/></svg>